<svg width="16" height="16" viewBox="0 0 16 16" fill="none" xmlns="http://www.w3.org/2000/svg">
<path d="M7.24701 4.85953L2.45101 10.3405C1.88501 10.9875 2.34501 11.9995 3.20401 11.9995H12.796C12.9883 11.9997 13.1765 11.9444 13.3381 11.8404C13.4998 11.7363 13.628 11.5879 13.7075 11.4128C13.7869 11.2378 13.8142 11.0435 13.7861 10.8534C13.758 10.6632 13.6757 10.4851 13.549 10.3405L8.75301 4.86053C8.65915 4.75312 8.5434 4.66704 8.41352 4.60805C8.28364 4.54907 8.14265 4.51855 8.00001 4.51855C7.85737 4.51855 7.71638 4.54907 7.5865 4.60805C7.45663 4.66704 7.34087 4.75312 7.24701 4.86053V4.85953Z" fill="white"/>
</svg>
