<svg width="143" height="140" viewBox="0 0 143 140" fill="none" xmlns="http://www.w3.org/2000/svg">
<path d="M69.2668 1.26414C69.9763 -0.302416 72.2011 -0.302415 72.9106 1.26415L85.3488 28.7291C85.8116 29.7512 87.0244 30.1926 88.0359 29.7072L115.218 16.6629C116.769 15.9189 118.473 17.349 118.01 19.005L109.884 48.0396C109.581 49.12 110.227 50.2377 111.313 50.5161L140.521 57.996C142.187 58.4227 142.573 60.6137 141.154 61.5844L116.266 78.6029C115.34 79.2361 115.116 80.5072 115.769 81.419L133.336 105.923C134.338 107.321 133.225 109.248 131.514 109.079L101.509 106.118C100.393 106.008 99.404 106.838 99.3186 107.956L97.0242 138.019C96.8933 139.734 94.8026 140.495 93.6002 139.265L72.5185 117.711C71.7341 116.909 70.4434 116.909 69.6589 117.711L48.5773 139.265C47.3748 140.495 45.2841 139.734 45.1533 138.019L42.8588 107.956C42.7734 106.838 41.7847 106.008 40.6682 106.118L10.6637 109.079C8.95232 109.248 7.83989 107.321 8.84184 105.923L26.4082 81.419C27.0618 80.5072 26.8377 79.2361 25.9116 78.6029L1.0237 61.5844C-0.395865 60.6137 -0.00952257 58.4227 1.65643 57.996L30.864 50.5161C31.9509 50.2377 32.5962 49.12 32.2939 48.0396L24.1679 19.005C23.7044 17.349 25.4087 15.9189 26.9592 16.6629L54.1415 29.7072C55.153 30.1926 56.3658 29.7512 56.8287 28.7291L69.2668 1.26414Z" fill="url(#paint0_linear_703_4633)"/>
<defs>
<linearGradient id="paint0_linear_703_4633" x1="71.0887" y1="-2.75879" x2="89.8615" y2="134.349" gradientUnits="userSpaceOnUse">
<stop stop-color="#FFF626"/>
<stop offset="1" stop-color="#D2CB17"/>
</linearGradient>
</defs>
</svg>
